<svg xmlns="http://www.w3.org/2000/svg" viewBox="0 0 400 400">
  <defs>
    <linearGradient id="brainGradient" x1="0%" y1="0%" x2="100%" y2="100%">
      <stop offset="0%" style="stop-color:#8B45C1;stop-opacity:1" />
      <stop offset="100%" style="stop-color:#3B82F6;stop-opacity:1" />
    </linearGradient>
  </defs>
  
  <!-- Brain outline -->
  <path d="M200 50 C280 50 350 120 350 200 C350 250 330 295 295 325 L285 340 L275 355 L265 365 L250 375 L230 385 L210 390 L190 390 L170 385 L150 375 L135 365 L125 355 L115 340 L105 325 C70 295 50 250 50 200 C50 120 120 50 200 50 Z" 
        fill="url(#brainGradient)" 
        stroke="#E5E7EB" 
        stroke-width="8"/>
  
  <!-- Circuit patterns -->
  <!-- Gear/Settings icon -->
  <g transform="translate(120, 130)">
    <circle cx="0" cy="0" r="12" fill="none" stroke="white" stroke-width="3"/>
    <circle cx="0" cy="0" r="4" fill="white"/>
    <rect x="-2" y="-20" width="4" height="8" fill="white"/>
    <rect x="-2" y="12" width="4" height="8" fill="white"/>
    <rect x="-20" y="-2" width="8" height="4" fill="white"/>
    <rect x="12" y="-2" width="8" height="4" fill="white"/>
    <rect x="-14" y="-14" width="4" height="8" fill="white" transform="rotate(45)"/>
    <rect x="10" y="-14" width="4" height="8" fill="white" transform="rotate(-45)"/>
    <rect x="-14" y="10" width="4" height="8" fill="white" transform="rotate(-45)"/>
    <rect x="10" y="10" width="4" height="8" fill="white" transform="rotate(45)"/>
  </g>
  
  <!-- Connection lines -->
  <line x1="130" y1="170" x2="130" y2="270" stroke="white" stroke-width="4"/>
  <circle cx="130" cy="280" r="8" fill="white"/>
  
  <!-- Central processing unit -->
  <circle cx="200" cy="120" r="6" fill="white"/>
  <line x1="200" y1="120" x2="260" y2="180" stroke="white" stroke-width="3"/>
  <line x1="260" y1="180" x2="320" y2="160" stroke="white" stroke-width="3"/>
  
  <!-- Neural pathways -->
  <line x1="260" y1="180" x2="250" y2="220" stroke="white" stroke-width="3"/>
  <line x1="250" y1="220" x2="280" y2="250" stroke="white" stroke-width="3"/>
  
  <!-- Connection nodes -->
  <circle cx="260" cy="180" r="5" fill="white"/>
  <circle cx="320" cy="160" r="6" fill="white"/>
  <circle cx="250" cy="220" r="4" fill="white"/>
  <circle cx="280" cy="250" r="5" fill="white"/>
  
  <!-- Memory/data processing -->
  <rect x="340" y="240" width="6" height="30" fill="white"/>
  <circle cx="343" cy="235" r="4" fill="white"/>
  
  <!-- Additional circuit elements -->
  <line x1="180" y1="200" x2="190" y2="210" stroke="white" stroke-width="2"/>
  <line x1="190" y1="200" x2="200" y2="210" stroke="white" stroke-width="2"/>
  <circle cx="195" cy="205" r="3" fill="white"/>
</svg>
